<?xml version="1.0" standalone="no"?>
<!DOCTYPE svg PUBLIC "-//W3C//DTD SVG 20010904//EN"
 "http://www.w3.org/TR/2001/REC-SVG-20010904/DTD/svg10.dtd">
<svg version="1.0" xmlns="http://www.w3.org/2000/svg"
 width="192.000000pt" height="192.000000pt" viewBox="0 0 192.000000 192.000000"
 preserveAspectRatio="xMidYMid meet">
<metadata>
Created by potrace 1.14, written by Peter Selinger 2001-2017
</metadata>
<g transform="translate(0.000000,192.000000) scale(0.100000,-0.100000)"
fill="#000000" stroke="none">
<path d="M815 1910 c-3 -5 -1 -10 4 -10 6 0 11 5 11 10 0 6 -2 10 -4 10 -3 0
-8 -4 -11 -10z"/>
<path d="M840 1913 c0 -5 10 -9 23 -9 112 2 262 -36 382 -96 241 -119 410
-331 480 -598 21 -83 24 -112 21 -235 -3 -117 -8 -155 -30 -230 -58 -194 -174
-362 -328 -476 -335 -249 -786 -242 -1116 17 -49 39 -46 35 21 -29 116 -109
255 -186 414 -228 111 -30 309 -34 423 -10 335 72 608 312 716 628 42 127 45
144 49 293 6 205 -43 378 -154 546 -140 212 -356 359 -605 413 -87 19 -296 28
-296 14z"/>
<path d="M773 1828 c-360 -30 -660 -283 -748 -633 -21 -82 -28 -266 -14 -345
39 -210 169 -418 333 -534 162 -115 334 -166 537 -160 108 3 151 14 57 14
-177 0 -379 80 -516 206 -326 296 -344 793 -42 1118 59 63 133 118 217 160
130 64 233 86 378 81 169 -6 307 -55 444 -157 l66 -50 -55 57 c-166 171 -416
264 -657 243z"/>
<path d="M873 1060 c-38 -23 -53 -48 -53 -90 0 -78 66 -130 139 -110 48 13 72
39 81 90 6 33 3 47 -14 73 -39 58 -96 72 -153 37z"/>
</g>
</svg>
